<svg width="800" height="600" viewBox="0 0 800 600" xmlns="http://www.w3.org/2000/svg">
  <rect width="800" height="600" rx="36" fill="#FFF6ED"/>
  <rect x="90" y="90" width="620" height="420" rx="28" fill="#FFFFFF"/>
  <circle cx="640" cy="170" r="72" fill="#F6B26B" opacity="0.2"/>
  <rect x="180" y="170" width="380" height="190" rx="20" fill="#F9E3D0"/>
  <rect x="210" y="200" width="150" height="120" rx="16" fill="#E2562A"/>
  <rect x="380" y="200" width="150" height="120" rx="16" fill="#C43717"/>
  <ellipse cx="285" cy="260" rx="50" ry="28" fill="#FFF3E7"/>
  <ellipse cx="455" cy="260" rx="50" ry="28" fill="#FFF3E7"/>
  <circle cx="285" cy="260" r="16" fill="#8D4A2A"/>
  <circle cx="455" cy="260" r="16" fill="#8D4A2A"/>
  <rect x="220" y="360" width="320" height="18" rx="9" fill="#E2562A"/>
  <rect x="240" y="390" width="280" height="16" rx="8" fill="#F2A65A"/>
  <rect x="220" y="430" width="140" height="18" rx="9" fill="#C43717"/>
  <rect x="380" y="430" width="130" height="18" rx="9" fill="#C43717"/>
  <text x="400" y="520" text-anchor="middle" font-family="Arial, sans-serif" font-size="32" font-weight="700" fill="#6F2D16">Dimsum Narawi</text>
</svg>
