<svg xmlns="http://www.w3.org/2000/svg" viewBox="0 0 720 720" role="img" aria-labelledby="t d"><title id="t">Burger KFC</title><desc id="d">Ilustrasi burger dengan ayam crispy.</desc><rect width="720" height="720" rx="56" fill="#f5f5f5"/><g transform="translate(94 150)"><path d="M86 210c12-112 96-176 201-176s190 64 202 176H86Z" fill="#f2a93b"/><g fill="#fff7d1"><circle cx="176" cy="116" r="9"/><circle cx="256" cy="82" r="8"/><circle cx="335" cy="126" r="8"/><circle cx="420" cy="94" r="9"/></g><path d="M60 250h452c22 0 40 18 40 40s-18 40-40 40H60c-22 0-40-18-40-40s18-40 40-40Z" fill="#e4002b"/><path d="M70 330h434c14 0 24 11 24 24 0 28-54 48-82 24-25 31-74 31-99 0-29 31-81 31-110 0-24 27-70 27-94 0-31 23-81 11-97-24-6-13 5-24 24-24Z" fill="#168a4a"/><path d="M78 368h418c25 0 45 20 45 45s-20 45-45 45H78c-25 0-45-20-45-45s20-45 45-45Z" fill="#8b3e16"/><path d="M91 458h391c30 0 54 24 54 54v10H37v-10c0-30 24-54 54-54Z" fill="#f2a93b"/></g></svg>
