<svg xmlns="http://www.w3.org/2000/svg" viewBox="0 0 720 720" role="img" aria-labelledby="t d"><title id="t">Bucket ayam crispy</title><desc id="d">Ilustrasi bucket ayam crispy merah putih.</desc><rect width="720" height="720" rx="56" fill="#fff7f0"/><circle cx="536" cy="148" r="86" fill="#e4002b" opacity=".12"/><circle cx="160" cy="570" r="118" fill="#111" opacity=".06"/><g transform="translate(120 98)"><path d="M80 192c24-84 91-125 169-101 34-48 112-38 134 17 69-14 123 38 111 107 51 29 56 102 8 137H40c-48-44-29-128 40-160Z" fill="#f4a53a"/><path d="M98 209c17-45 67-74 120-49 21-45 86-39 103 6 56-15 95 26 81 78 41 18 47 72 11 100H76c-33-38-19-106 22-135Z" fill="#d98322" opacity=".9"/><path d="M100 282h340l-37 274H137L100 282Z" fill="#fff"/><path d="M123 282h294l-31 241H154l-31-241Z" fill="#e4002b"/><path d="M214 282h112v241H214z" fill="#fff"/><path d="M92 257h356c16 0 29 13 29 29v12H63v-12c0-16 13-29 29-29Z" fill="#111"/><text x="270" y="424" text-anchor="middle" font-family="Arial, sans-serif" font-size="76" font-weight="900" fill="#111">KFC</text><path d="M158 558h228" stroke="#111" stroke-width="22" stroke-linecap="round"/></g></svg>
