<svg xmlns="http://www.w3.org/2000/svg" viewBox="0 0 720 720" role="img" aria-labelledby="t d"><title id="t">Rice box KFC</title><desc id="d">Ilustrasi rice box merah putih dengan ayam.</desc><rect width="720" height="720" rx="56" fill="#fff7f0"/><g transform="translate(136 108)"><path d="M80 160h288l-32 356H112L80 160Z" fill="#fff" stroke="#111" stroke-width="18"/><path d="M104 184h240l-24 300H128l-24-300Z" fill="#e4002b"/><path d="M182 184h84v300h-84z" fill="#fff"/><path d="M56 116h336c22 0 40 18 40 40v20H16v-20c0-22 18-40 40-40Z" fill="#111"/><path d="M116 74c32-56 116-61 158-10 44-23 102 5 112 52H74c3-18 19-35 42-42Z" fill="#f2a93b"/><text x="224" y="348" text-anchor="middle" font-family="Arial, sans-serif" font-size="64" font-weight="900" fill="#111">KFC</text><circle cx="342" cy="418" r="56" fill="#f2a93b"/><path d="M316 404c30-18 58 2 58 30" fill="none" stroke="#8b3e16" stroke-width="16" stroke-linecap="round"/></g></svg>
