<svg xmlns="http://www.w3.org/2000/svg" viewBox="0 0 900 900"><defs><linearGradient id="bg" x1="0" x2="1" y1="0" y2="1"><stop stop-color="#fff9fb"/><stop offset="0.45" stop-color="#fce4ec"/><stop offset="1" stop-color="#dcc6f2"/></linearGradient><filter id="sh" x="-20%" y="-20%" width="140%" height="140%"><feDropShadow dx="0" dy="28" stdDeviation="28" flood-color="#c96787" flood-opacity="0.22"/></filter></defs><rect width="900" height="900" rx="80" fill="url(#bg)"/><circle cx="150" cy="165" r="70" fill="#fff2c7" opacity=".85"/><circle cx="760" cy="220" r="95" fill="#cfeee4" opacity=".75"/><circle cx="710" cy="720" r="130" fill="#cfe8ff" opacity=".62"/><g filter="url(#sh)"><path d="M285 250l95-70h140l95 70 60 170-95 38-38-95v350H358V363l-38 95-95-38 60-170z" fill="#fffaf0"/><path d="M382 185c30 45 106 45 136 0v110H382V185z" fill="#f8bbd0"/><path d="M450 310c-55 20-80 60-75 105 55-5 83-42 75-105z" fill="#efa3b8" opacity=".75"/><path d="M450 310c55 20 80 60 75 105-55-5-83-42-75-105z" fill="#dcc6f2" opacity=".75"/></g></svg>