<svg xmlns="http://www.w3.org/2000/svg" viewBox="0 0 900 900"><defs><linearGradient id="bg" x1="0" x2="1" y1="0" y2="1"><stop stop-color="#fff9fb"/><stop offset="0.45" stop-color="#fce4ec"/><stop offset="1" stop-color="#dcc6f2"/></linearGradient><filter id="sh" x="-20%" y="-20%" width="140%" height="140%"><feDropShadow dx="0" dy="28" stdDeviation="28" flood-color="#c96787" flood-opacity="0.22"/></filter></defs><rect width="900" height="900" rx="80" fill="url(#bg)"/><circle cx="150" cy="165" r="70" fill="#fff2c7" opacity=".85"/><circle cx="760" cy="220" r="95" fill="#cfeee4" opacity=".75"/><circle cx="710" cy="720" r="130" fill="#cfe8ff" opacity=".62"/><g filter="url(#sh)"><path d="M260 210h380l55 520H205l55-520z" fill="#fff"/><path d="M315 235c55 48 215 48 270 0l55 495H260l55-495z" fill="#f8bbd0"/><path d="M380 210h140l35 120H345l35-120z" fill="#fff9fb"/><path d="M325 455h250" stroke="#c96787" stroke-width="18" stroke-linecap="round"/><path d="M300 565h300" stroke="#dcc6f2" stroke-width="18" stroke-linecap="round"/><circle cx="450" cy="185" r="48" fill="#efa3b8"/></g><text x="450" y="805" text-anchor="middle" font-family="Georgia" font-size="54" fill="#2f2630">Luma Wear</text></svg>